<svg width="78" height="78" viewBox="0 0 78 78" fill="none" xmlns="http://www.w3.org/2000/svg">
<path d="M4.96192 35.9049C2.84788 16.7464 17.848 0 37.1228 0H38.6998C58.4388 0 73.1762 18.1631 69.1098 37.4786V37.4786C67.7395 43.9874 69.0427 50.8054 69.0966 57.4566C69.1661 66.0193 64.3193 77 39 77C37.4221 77 35.9209 76.9935 34.4927 76.981C16.9771 76.8275 7.66501 60.4017 5.74385 42.9911L4.96192 35.9049Z" fill="white"/>
<g clip-path="url(#clip0)">
<path d="M17.55 4.87506C5.85 11.9438 0 23.1563 0 38.5126C0 53.1376 4.14375 63.1313 13.65 70.4438C22.1813 77.2688 31.6875 77.2688 31.6875 70.6876C31.6875 67.0313 29.9813 65.8126 25.8375 65.8126C22.425 65.8126 19.2563 64.8376 18.525 63.6188C17.7938 62.6438 19.9875 62.1563 23.4 62.8876C27.3 63.6188 30.7125 62.6438 31.9313 60.6938C35.3438 55.3313 34.6125 54.3563 27.0563 52.8938C18.525 51.1876 12.675 39.7313 16.8188 32.1751C18.2813 29.2501 19.5 24.8626 19.5 21.9376C19.5 18.5251 20.475 17.3063 22.425 18.5251C26.8125 21.2063 49.2375 21.6938 54.3563 19.0126C57.525 17.3063 58.5 18.0376 58.5 21.9376C58.5 24.8626 59.7188 29.2501 61.1813 32.1751C65.325 39.7313 59.475 51.1876 50.7 52.8938C45.825 53.8688 44.1188 55.3313 44.85 57.7688C45.825 59.7188 46.3125 64.5938 46.3125 68.4938C46.3125 74.3438 47.2875 75.5626 52.1625 75.5626C59.2313 75.5626 69.7125 67.5188 74.3438 58.5001C76.2938 54.6001 78 45.5813 78 38.5126C78 23.1563 72.15 11.9438 60.45 4.87506C49.4813 -1.70619 28.5188 -1.70619 17.55 4.87506Z" fill="black" stroke="white" stroke-width="0.1"/>
</g>
<defs>
<clipPath id="clip0">
<rect width="78" height="78" fill="white"/>
</clipPath>
</defs>
</svg>
